<svg width="500" height="500" viewBox="0 0 500 500" fill="none" xmlns="http://www.w3.org/2000/svg">
<g clip-path="url(#clip0_140_2)">
<circle cx="250" cy="250" r="250" fill="black"/>
<path d="M255 377.55C236.8 377.55 221.167 373.933 208.1 366.7C195.033 359.467 184.3 349.667 175.9 337.3C167.5 324.933 161.317 311.167 157.35 296C153.383 280.6 151.4 264.85 151.4 248.75C151.4 231.95 153.383 215.967 157.35 200.8C161.55 185.633 167.85 172.333 176.25 160.9C184.65 149.233 195.383 140.133 208.45 133.6C221.517 126.833 237.033 123.45 255 123.45C272.033 123.45 287.2 126.6 300.5 132.9C313.8 139.2 324.767 147.95 333.4 159.15C342.267 170.117 348.333 182.833 351.6 197.3L320.45 203.6C317.883 193.567 313.45 184.7 307.15 177C300.85 169.067 293.267 162.883 284.4 158.45C275.533 153.783 265.733 151.45 255 151.45C239.833 151.45 226.767 155.767 215.8 164.4C205.067 172.8 196.9 184.35 191.3 199.05C185.7 213.517 182.9 229.85 182.9 248.05C182.9 266.95 185.7 284.1 191.3 299.5C196.9 314.9 205.067 327.15 215.8 336.25C226.767 345.117 239.833 349.55 255 349.55C265.733 349.55 275.533 347.333 284.4 342.9C293.267 338.233 300.85 332.05 307.15 324.35C313.45 316.417 317.883 307.433 320.45 297.4L351.6 303.7C348.333 317.933 342.267 330.65 333.4 341.85C324.767 353.05 313.8 361.8 300.5 368.1C287.2 374.4 272.033 377.55 255 377.55Z" fill="white"/>
<rect width="5.40353" height="49.7469" transform="matrix(0.575576 -0.817749 0.575576 0.817749 306 314.995)" fill="#0C1017"/>
<rect width="5.40353" height="92.847" transform="matrix(0.575576 0.817749 -0.575576 0.817749 343.44 298)" fill="#0C1017"/>
</g>
<defs>
<clipPath id="clip0_140_2">
<rect width="500" height="500" fill="white"/>
</clipPath>
</defs>
</svg>
